<?xml version="1.0" standalone="no"?>
<!DOCTYPE svg PUBLIC "-//W3C//DTD SVG 20010904//EN"
 "http://www.w3.org/TR/2001/REC-SVG-20010904/DTD/svg10.dtd">
<svg version="1.0" xmlns="http://www.w3.org/2000/svg"
 width="735.000000pt" height="672.000000pt" viewBox="0 0 735.000000 672.000000"
 preserveAspectRatio="xMidYMid meet">

<g transform="translate(0.000000,672.000000) scale(0.100000,-0.100000)"
fill="#000000" stroke="none">
<path d="M0 3360 l0 -3360 3675 0 3675 0 0 3360 0 3360 -3675 0 -3675 0 0
-3360z m3912 2997 c36 -7 70 -16 75 -21 5 -5 2 -6 -6 -1 -9 5 -12 4 -8 -2 4
-6 17 -8 30 -6 14 3 31 -2 39 -11 9 -8 19 -12 23 -8 5 4 5 2 2 -4 -4 -6 6 -22
21 -36 15 -14 38 -38 52 -54 14 -16 35 -34 45 -41 11 -7 2 -5 -20 4 -22 8 -76
27 -120 40 -44 13 -84 26 -90 29 -11 5 47 -2 83 -10 12 -3 22 -1 22 3 0 10
-75 61 -90 61 -6 0 -13 7 -16 15 -4 8 -10 13 -15 10 -4 -3 -17 0 -28 7 -15 9
-25 9 -43 1 l-23 -12 23 0 c25 -1 87 -30 79 -37 -2 -3 -17 2 -33 10 -16 8 -47
20 -69 26 -44 14 -60 30 -42 42 15 10 27 9 109 -5z m-245 -13 c-3 -3 -12 -4
-19 -1 -8 3 -5 6 6 6 11 1 17 -2 13 -5z m40 0 c-3 -3 -12 -4 -19 -1 -8 3 -5 6
6 6 11 1 17 -2 13 -5z m56 -1 c-7 -2 -19 -2 -25 0 -7 3 -2 5 12 5 14 0 19 -2
13 -5z m174 -89 c-3 -3 -12 -4 -19 -1 -8 3 -5 6 6 6 11 1 17 -2 13 -5z m210
-16 c-3 -8 -6 -5 -6 6 -1 11 2 17 5 13 3 -3 4 -12 1 -19z m158 12 c18 -7 17
-9 -14 -23 -27 -11 -39 -12 -53 -3 -15 9 -21 8 -28 -4 -5 -8 -12 -11 -16 -7
-9 8 25 36 44 37 8 0 10 -5 6 -12 -5 -8 -2 -9 10 -5 10 4 20 7 22 7 3 0 2 5
-1 10 -7 12 2 12 30 0z m-395 -60 c12 -8 11 -10 -7 -10 -13 0 -23 5 -23 10 0
13 11 13 30 0z m467 4 c-3 -3 -12 -4 -19 -1 -8 3 -5 6 6 6 11 1 17 -2 13 -5z
m143 -8 c0 -11 -19 -15 -25 -6 -3 5 1 10 9 10 9 0 16 -2 16 -4z m-513 -12 c-3
-3 -12 -4 -19 -1 -8 3 -5 6 6 6 11 1 17 -2 13 -5z m463 2 c0 -2 -11 -6 -25 -8
-13 -3 -22 -1 -19 3 5 9 44 13 44 5z m-756 -66 c7 -7 2 -8 -19 -1 -17 5 -39
12 -50 15 -11 3 -2 3 19 1 22 -2 44 -9 50 -15z m-684 -24 c0 -2 -8 -10 -17
-17 -16 -13 -17 -12 -4 4 13 16 21 21 21 13z m-59 -52 c-11 -8 -34 -35 -51
-59 -24 -34 -27 -43 -13 -38 15 5 15 3 -3 -18 -27 -30 -51 -74 -35 -65 6 4 11
3 11 -3 0 -5 -4 -11 -8 -13 -10 -4 -62 -73 -62 -82 0 -4 5 -4 10 -1 16 10 12
-1 -8 -18 -17 -15 -18 -15 -19 6 -1 12 4 32 13 44 8 13 15 33 16 47 1 14 7 22
15 19 7 -3 11 3 10 16 -1 12 -5 21 -9 21 -15 0 -8 16 20 47 118 133 127 142
130 127 2 -9 -6 -22 -17 -30z m1678 20 c11 -10 -8 -10 -59 2 l-55 13 55 -5
c30 -3 57 -7 59 -10z m34 -13 c-2 -6 1 -11 6 -11 5 0 11 -7 15 -15 4 -12 2
-13 -14 -2 -11 6 -18 17 -16 24 3 6 1 14 -5 17 -5 2 -4 3 3 2 7 -2 12 -9 11
-15z m-1600 -43 c-18 -31 -67 -78 -80 -78 -8 0 7 20 33 45 47 45 62 55 47 33z
m-162 -98 c-22 -22 -41 -37 -41 -33 0 10 73 84 78 78 2 -2 -14 -22 -37 -45z
m23 -32 c-4 -7 -16 -19 -26 -26 -10 -7 -18 -19 -18 -25 -1 -13 -50 -77 -50
-64 0 8 47 83 69 110 16 19 36 23 25 5z m-184 -44 c-18 -21 -24 -10 -9 18 8
14 14 18 17 10 2 -7 -2 -19 -8 -28z m2035 -94 c3 -5 1 -10 -4 -10 -6 0 -11 5
-11 10 0 6 2 10 4 10 3 0 8 -4 11 -10z m-594 -54 c32 -26 63 -45 68 -42 5 3
18 -34 30 -84 11 -49 26 -101 31 -115 6 -15 7 -32 3 -38 -8 -13 -5 -56 5 -72
4 -5 7 -14 7 -20 0 -5 12 -35 27 -65 49 -102 56 -126 62 -231 4 -57 9 -131 12
-164 12 -122 7 -319 -11 -415 -9 -52 -18 -101 -19 -108 -1 -7 -8 -18 -14 -24
-7 -7 -12 -21 -13 -33 -1 -30 -42 -100 -59 -101 -8 -1 -17 -3 -20 -4 -19 -7
-137 -6 -147 1 -7 7 -14 6 -18 -1 -5 -8 -11 -8 -21 1 -10 8 -14 8 -14 0 0 -19
-48 -33 -71 -21 -12 7 -31 8 -52 2 -18 -5 -47 -5 -67 0 -19 5 -46 11 -60 13
-85 15 -91 17 -88 37 4 26 76 62 150 75 32 6 54 28 38 38 -5 3 -10 21 -10 38
0 27 -5 35 -30 44 -41 16 -40 37 3 30 46 -8 139 -32 161 -42 24 -11 33 5 30
55 -1 29 2 40 12 40 12 0 13 4 3 22 -27 51 -89 88 -146 88 -49 0 -62 82 -20
130 l18 21 35 -30 c19 -17 41 -31 49 -31 30 0 -9 58 -82 123 -19 17 -20 16
-19 -25 1 -36 -2 -43 -19 -44 -11 0 -35 10 -53 24 -33 23 -34 24 -55 5 -12
-10 -24 -21 -27 -25 -10 -13 -95 -11 -132 2 -37 14 -39 13 -71 -18 -27 -26
-36 -30 -44 -20 -17 22 -22 59 -12 85 5 14 8 27 6 29 -5 6 -77 -65 -77 -76 0
-5 -14 -23 -32 -40 -17 -17 -33 -41 -34 -55 -2 -21 1 -24 24 -21 30 3 65 20
101 47 25 20 45 15 84 -19 16 -15 16 -17 -5 -39 -12 -13 -28 -23 -35 -23 -7 0
-32 -9 -56 -19 -23 -10 -50 -21 -59 -24 -9 -3 -28 -26 -43 -50 -22 -39 -24
-48 -14 -73 25 -61 43 -91 61 -103 17 -10 25 -8 56 15 20 16 47 39 59 53 18
20 31 25 64 24 23 -1 47 -7 53 -14 7 -7 7 -10 1 -6 -12 6 -72 -20 -94 -41 -8
-7 -14 -33 -14 -58 0 -24 -4 -44 -10 -44 -6 0 0 -8 11 -19 12 -10 22 -23 22
-29 0 -6 9 -16 21 -22 12 -7 19 -19 17 -32 -2 -16 -12 -22 -43 -25 -22 -2 -45
-11 -52 -19 -13 -17 -78 -10 -91 10 -4 6 -24 20 -45 31 -29 16 -41 17 -56 8
-10 -6 -23 -8 -31 -3 -8 5 -28 7 -45 4 -25 -4 -24 -2 8 8 35 12 37 14 18 25
-13 8 -22 9 -26 3 -3 -6 -15 -10 -26 -10 -14 0 -19 -7 -19 -25 0 -28 -24 -35
-34 -10 -3 8 -9 15 -13 14 -22 -4 -33 3 -33 20 0 27 -11 52 -20 46 -4 -3 -7
12 -6 32 1 29 -5 45 -25 65 -14 16 -31 28 -38 28 -6 0 -11 12 -11 26 0 14 -8
38 -19 52 -25 36 -31 68 -35 192 -2 58 -7 137 -11 176 -8 78 4 120 32 110 12
-5 13 -3 5 7 -13 15 14 78 48 114 10 12 17 23 14 26 -3 2 2 7 11 11 10 4 19
-2 25 -17 17 -39 34 -54 75 -60 22 -4 66 -20 98 -37 31 -17 61 -29 66 -26 5 4
12 2 15 -3 8 -13 66 -7 98 10 15 8 46 24 70 36 36 19 49 34 76 88 26 53 30 69
20 84 -16 26 -3 55 19 42 21 -11 75 -3 86 13 11 17 37 -22 37 -57 0 -44 60
-146 90 -154 14 -3 31 -10 38 -16 7 -5 15 -7 18 -4 4 3 23 -3 42 -14 20 -10
46 -19 57 -19 11 0 27 -4 34 -9 20 -13 52 5 45 24 -4 9 0 15 8 15 8 0 20 11
26 25 7 14 20 25 31 25 11 0 22 8 26 19 3 10 19 21 35 25 30 6 40 29 18 40
-10 5 -10 7 0 12 6 3 12 19 12 36 0 25 3 28 22 23 16 -6 20 -4 15 9 -3 8 1 22
10 31 14 14 13 19 -12 55 -35 50 -93 90 -132 90 -18 0 -65 7 -105 15 -99 21
-127 24 -134 13 -3 -5 -12 -4 -20 3 -10 8 -14 8 -14 1 0 -7 -15 -10 -39 -7
-26 2 -44 -1 -52 -11 -6 -8 -21 -14 -33 -14 -12 0 -30 -6 -41 -14 -23 -15 -61
-14 -95 4 -12 6 -27 9 -35 7 -7 -3 -17 -1 -23 5 -15 15 -81 27 -88 16 -3 -5
-12 -4 -22 4 -12 10 -16 10 -19 1 -3 -7 -12 -13 -21 -13 -9 0 -30 -7 -46 -15
-39 -20 -186 -22 -186 -2 0 4 -4 5 -10 2 -5 -3 -10 -1 -10 4 0 6 8 11 18 12
16 0 16 1 0 7 -13 5 -15 11 -8 22 9 13 11 13 19 0 8 -12 11 -12 17 4 5 13 1
23 -10 32 -24 17 -15 42 52 139 60 87 93 122 132 137 34 14 90 18 90 7 0 -5
11 -11 25 -15 14 -3 25 -12 25 -20 0 -8 10 -14 25 -14 14 0 25 5 25 11 0 12
67 7 103 -7 13 -4 17 -1 17 15 0 12 6 21 15 21 8 0 15 7 15 15 0 17 16 20 26
4 3 -6 20 -9 37 -6 21 3 40 -2 57 -15 22 -16 33 -17 68 -10 36 9 43 7 55 -11
15 -23 53 -17 44 7 -4 10 5 18 24 25 16 5 29 15 29 21 0 23 55 2 111 -44z
m-1488 20 c-10 -13 -19 -20 -21 -15 -4 10 19 38 31 39 4 0 0 -11 -10 -24z m57
15 c0 -5 -7 -12 -16 -15 -14 -5 -15 -4 -4 9 14 17 20 19 20 6z m63 -11 c-5
-19 -23 -39 -23 -25 0 9 20 45 24 45 2 0 2 -9 -1 -20z m864 -12 c-3 -8 -6 -5
-6 6 -1 11 2 17 5 13 3 -3 4 -12 1 -19z m-967 -8 c0 -5 -5 -10 -11 -10 -5 0
-7 5 -4 10 3 6 8 10 11 10 2 0 4 -4 4 -10z m2138 -17 c-10 -2 -26 -2 -35 0
-10 3 -2 5 17 5 19 0 27 -2 18 -5z m-2049 -35 c-43 -36 -55 -35 -33 1 12 20
24 28 41 27 24 -1 24 -1 -8 -28z m1887 -4 c-4 -9 -9 -15 -11 -12 -3 3 -3 13 1
22 4 9 9 15 11 12 3 -3 3 -13 -1 -22z m-2021 -44 c-3 -5 -1 -10 4 -10 6 0 11
-4 11 -8 0 -4 -9 -8 -20 -8 -20 0 -27 16 -13 29 10 11 25 8 18 -3z m2182 -22
c-3 -8 -6 -5 -6 6 -1 11 2 17 5 13 3 -3 4 -12 1 -19z m-1971 -49 c-9 -19 -15
-29 -16 -22 0 6 -3 19 -7 29 -4 11 -3 15 4 11 6 -4 14 0 17 9 4 9 9 15 11 12
3 -3 -1 -20 -9 -39z m1841 -31 c-3 -7 -5 -2 -5 12 0 14 2 19 5 13 2 -7 2 -19
0 -25z m-2037 6 c0 -2 -14 -4 -31 -4 -16 0 -28 4 -25 9 5 8 56 3 56 -5z m174
-101 c-10 -87 -23 -108 -18 -30 3 63 9 87 20 87 2 0 1 -26 -2 -57z m1991 -63
c3 -5 1 -10 -4 -10 -6 0 -11 5 -11 10 0 6 2 10 4 10 3 0 8 -4 11 -10z m-690
-166 c37 -24 30 -34 -9 -15 -18 9 -32 19 -29 24 6 10 11 9 38 -9z m-889 -49
c-20 -15 -36 -19 -36 -10 0 5 38 23 50 24 3 0 -4 -6 -14 -14z m1287 -251 c4
-27 8 -67 8 -88 -1 -44 4 -42 31 12 12 25 17 29 13 12 -3 -14 -10 -63 -16
-110 -6 -47 -19 -103 -29 -125 -28 -62 -39 -105 -45 -175 -3 -36 -14 -83 -25
-105 l-18 -40 -1 43 c-1 27 5 49 15 59 10 11 13 25 8 45 -4 21 -3 28 5 24 13
-8 14 -4 5 18 -3 9 -10 14 -14 11 -13 -8 -41 25 -38 44 2 9 11 15 21 15 15 -2
21 10 20 42 0 6 8 9 18 7 26 -7 50 48 55 121 3 51 2 55 -4 19 -5 -25 -23 -59
-46 -87 -25 -31 -36 -52 -31 -64 4 -11 3 -14 -4 -7 -19 20 -17 95 3 95 24 0
46 41 46 85 0 52 -10 86 -22 79 -7 -4 -7 0 0 12 5 11 7 34 5 51 -3 18 -2 40 1
49 11 29 31 8 39 -42z m-1677 -89 c-22 -34 -32 -125 -17 -153 6 -11 23 -27 38
-34 15 -7 36 -32 47 -55 12 -23 29 -45 40 -49 13 -4 15 -9 7 -17 -6 -6 -11
-23 -11 -37 0 -14 -6 -34 -13 -44 -18 -25 -66 -14 -99 22 -37 39 -78 151 -77
209 0 36 3 43 9 28 6 -14 9 1 9 48 1 63 4 71 32 99 22 22 33 28 41 20 8 -8 6
-18 -6 -37z m144 -376 c0 -6 -4 -7 -10 -4 -5 3 -10 11 -10 16 0 6 5 7 10 4 6
-3 10 -11 10 -16z m136 -338 c16 -24 37 -57 46 -74 9 -17 21 -33 25 -36 19
-14 43 -62 43 -88 0 -15 11 -41 25 -57 14 -16 25 -32 25 -36 0 -4 15 -15 34
-24 19 -9 37 -24 40 -33 6 -14 9 -15 15 -4 7 11 10 9 15 -7 4 -12 15 -24 25
-27 10 -3 26 -14 36 -25 10 -11 31 -20 46 -20 19 0 30 -6 34 -21 4 -11 13 -18
20 -15 8 3 16 -5 19 -20 5 -20 13 -24 41 -24 18 0 36 -4 39 -9 7 -10 25 -9 44
3 7 4 16 5 20 1 4 -4 1 -10 -5 -12 -22 -8 -14 -23 12 -23 16 0 25 -6 25 -15 0
-8 -7 -15 -15 -15 -8 0 -15 -4 -15 -10 0 -10 15 -14 34 -11 5 1 6 -7 3 -19 -4
-17 0 -20 23 -20 16 0 31 -6 34 -12 3 -7 4 3 1 22 -3 19 0 49 5 65 9 27 9 26
4 -11 -6 -49 8 -59 55 -41 32 12 40 30 19 43 -7 4 -8 3 -4 -4 4 -7 3 -12 -2
-12 -5 0 -12 10 -15 21 -6 24 19 69 38 69 7 0 15 7 19 15 3 8 1 15 -4 15 -21
0 -9 20 15 26 14 3 23 9 21 13 -3 4 -1 13 4 21 7 12 10 12 16 -3 7 -19 39 -23
49 -7 7 11 26 -4 38 -30 4 -8 14 -26 22 -39 10 -18 11 -30 3 -44 -6 -12 -6
-17 0 -13 5 3 15 0 21 -8 9 -11 8 -17 -3 -29 -9 -9 -11 -18 -5 -24 6 -6 1 -18
-12 -32 -14 -15 -18 -26 -12 -32 14 -14 -4 -100 -24 -116 -8 -6 -10 -14 -5
-17 5 -3 9 -21 10 -41 1 -29 -2 -35 -19 -35 -11 0 -28 7 -36 16 -13 13 -17 13
-24 2 -7 -10 -9 -10 -9 0 0 18 -24 15 -66 -8 -20 -12 -44 -18 -54 -15 -10 3
-21 1 -25 -5 -5 -7 -34 -10 -79 -8 -82 3 -106 20 -106 74 0 18 -4 36 -10 39
-25 16 -4 22 66 21 l76 -2 -6 30 -6 31 27 -35 c16 -19 28 -38 28 -41 0 -16 15
-20 32 -10 10 6 12 11 6 11 -8 0 -13 14 -13 35 0 19 -4 35 -10 35 -5 0 -10 7
-10 16 0 11 -6 15 -19 11 -14 -3 -18 -1 -14 9 4 11 -6 14 -42 14 -38 0 -52 5
-72 26 -13 14 -21 30 -18 35 9 14 -5 11 -21 -6 -9 -8 -24 -15 -35 -15 -12 0
-21 -9 -25 -25 -3 -14 -10 -22 -15 -19 -6 3 -7 14 -4 24 5 14 -1 20 -27 25
-18 4 -43 13 -56 21 -12 8 -27 12 -32 9 -5 -3 -12 1 -17 8 -4 7 -29 26 -55 42
-27 17 -48 33 -48 36 0 4 -29 21 -65 38 -76 37 -149 107 -166 159 -6 20 -15
42 -20 48 -7 9 -29 239 -29 312 0 23 0 23 24 5 13 -10 37 -38 52 -62z m1159
14 c-3 -16 -9 -106 -14 -198 -7 -130 -13 -173 -25 -186 -9 -10 -16 -22 -16
-28 0 -6 -10 -13 -22 -17 -26 -7 -53 20 -39 38 27 34 17 136 -13 136 -6 0 -5
4 2 9 7 4 16 23 19 42 3 19 9 42 14 51 6 12 5 24 -3 37 -9 15 -9 23 1 35 7 8
10 20 7 25 -4 5 2 16 13 23 10 7 29 31 41 52 26 42 43 33 35 -19z m-142 -150
c-3 -9 -8 -14 -10 -11 -3 3 -2 9 2 15 9 16 15 13 8 -4z m-35 -42 c-2 -9 -14
-17 -27 -18 l-24 -2 22 19 c29 22 33 23 29 1z m116 -654 c-3 -5 0 -16 6 -24
21 -25 0 -196 -31 -257 -5 -10 -9 -25 -9 -33 0 -9 -18 -48 -39 -88 -34 -63
-41 -87 -55 -197 -9 -69 -19 -141 -23 -160 -3 -19 -5 -43 -4 -53 2 -13 -3 -18
-15 -15 -16 3 -26 16 -68 88 -8 14 -44 70 -80 125 -41 62 -64 105 -61 116 3
10 1 20 -5 24 -5 3 -10 15 -10 26 0 14 -12 25 -37 36 -21 9 -32 18 -25 20 17
6 15 23 -3 23 -8 0 -15 7 -15 16 0 8 -5 12 -10 9 -6 -3 -13 2 -17 12 -4 10
-15 26 -26 35 -11 10 -16 22 -11 29 4 8 3 9 -4 5 -8 -5 -12 1 -12 17 0 14 -7
27 -15 31 -8 3 -15 17 -15 31 0 14 -4 25 -10 25 -19 0 -10 18 12 23 11 3 47
-5 80 -18 32 -13 58 -21 58 -18 0 3 6 0 13 -6 8 -6 16 -8 20 -5 3 3 15 -8 28
-25 27 -36 51 -39 80 -10 11 11 23 18 26 15 4 -3 12 -1 20 5 10 9 17 8 28 -1
23 -19 80 24 95 73 6 21 28 55 50 77 21 21 41 47 45 59 5 17 10 19 26 10 11
-5 17 -14 13 -20z"/>
<path d="M4010 6316 c0 -2 7 -7 16 -10 8 -3 12 -2 9 4 -6 10 -25 14 -25 6z"/>
<path d="M4045 6275 c25 -18 33 -25 50 -50 7 -11 17 -16 22 -12 9 10 -60 77
-79 77 -7 0 -4 -7 7 -15z"/>
<path d="M2860 5915 c-8 -9 -8 -15 -2 -15 12 0 26 19 19 26 -2 2 -10 -2 -17
-11z"/>
<path d="M3880 5600 c0 -5 7 -10 15 -10 8 0 15 5 15 10 0 6 -7 10 -15 10 -8 0
-15 -4 -15 -10z"/>
<path d="M3388 5526 c-37 -28 -9 -62 30 -37 15 9 13 43 -3 47 -5 2 -18 -3 -27
-10z"/>
<path d="M3440 5489 c0 -5 5 -7 10 -4 6 3 10 8 10 11 0 2 -4 4 -10 4 -5 0 -10
-5 -10 -11z"/>
<path d="M4290 5120 c0 -5 7 -7 15 -4 8 4 15 8 15 10 0 2 -7 4 -15 4 -8 0 -15
-4 -15 -10z"/>
<path d="M3700 3485 c0 -9 9 -15 25 -15 28 0 34 15 9 24 -25 10 -34 7 -34 -9z"/>
<path d="M4030 3330 c0 -5 7 -10 15 -10 8 0 15 5 15 10 0 6 -7 10 -15 10 -8 0
-15 -4 -15 -10z"/>
<path d="M4070 3294 c0 -8 5 -12 10 -9 6 3 10 10 10 16 0 5 -4 9 -10 9 -5 0
-10 -7 -10 -16z"/>
<path d="M3838 3263 c7 -3 16 -2 19 1 4 3 -2 6 -13 5 -11 0 -14 -3 -6 -6z"/>
<path d="M3950 2920 c0 -5 5 -10 10 -10 6 0 10 5 10 10 0 6 -4 10 -10 10 -5 0
-10 -4 -10 -10z"/>
</g>
</svg>
